<?xml version="1.0" encoding="utf-8"?>
<!-- Generator: Adobe Illustrator 16.0.0, SVG Export Plug-In . SVG Version: 6.00 Build 0)  -->
<!DOCTYPE svg PUBLIC "-//W3C//DTD SVG 1.1//EN" "http://www.w3.org/Graphics/SVG/1.1/DTD/svg11.dtd">
<svg version="1.1" id="Layer_1" xmlns="http://www.w3.org/2000/svg" xmlns:xlink="http://www.w3.org/1999/xlink" x="0px" y="0px"
	 width="70.189px" height="29.148px" viewBox="0 0 70.189 29.148" enable-background="new 0 0 70.189 29.148" xml:space="preserve">
<path fill="#075FA0" d="M42.051,2.88h3.215l-1.527,7.128c0.67-0.51,1.179-0.893,1.91-1.178c0.287-0.159,0.604-0.226,0.922-0.226
	c0.893,0,1.4,0.511,1.688,1.147c0.224,0.666,0.256,1.527,0.097,2.257L46,23.119c-0.16,0.73-0.541,1.59-1.05,2.228
	c-0.604,0.669-1.273,1.179-2.164,1.179c-0.605,0-1.179-0.353-1.592-0.702c-0.222-0.223-0.444-0.443-0.668-0.7l-0.223,1.146h-3.215
	L42.051,2.88z M41.097,22.451C40.97,23.054,41.35,23.5,41.829,23.5c0.478,0,0.955-0.445,1.082-1.049l2.068-9.771
	c0.127-0.604-0.159-1.05-0.638-1.05c-0.477,0-1.05,0.542-1.177,1.05L41.097,22.451z"/>
<path fill="#075FA0" d="M47.748,26.269L51.44,8.861h3.214l-3.691,17.407L47.748,26.269L47.748,26.269z M52.712,2.88h3.214
	l-0.698,3.213h-3.214L52.712,2.88z"/>
<path fill="#075FA0" d="M53.509,26.269l4.965-23.39h3.214l-4.964,23.39H53.509z"/>
<path fill="#075FA0" d="M59.268,26.269l4.965-23.39h3.214l-4.964,23.39H59.268z"/>
<rect x="4.079" y="2.624" fill="#075FA0" width="3.438" height="23.39"/>
<path fill="#075FA0" d="M15.378,8.352c-0.287,0-0.542,0.063-0.828,0.226c-0.572,0.315-1.05,0.795-1.399,1.145
	c-0.189,0.189-0.316,0.319-0.38,0.353v-1.47H9.554v17.407h3.215V12.296c0.094-0.155,0.189-0.285,0.285-0.412
	c0.224-0.222,0.415-0.411,0.764-0.411c0.383,0,0.766,0.093,0.766,0.764v13.777h3.214V11.757c0-0.73-0.19-1.591-0.572-2.259
	C16.842,8.861,16.237,8.352,15.378,8.352z"/>
<polygon fill="#075FA0" points="24.447,18.694 24.32,19.807 24.064,19.807 23.937,18.694 22.887,8.605 19.768,8.605 22.6,26.013 
	25.783,26.013 28.615,8.605 25.497,8.605 "/>
<path fill="#075FA0" d="M37.494,10.613c-0.51-1.114-1.56-2.262-3.627-2.262c-1.051,0-1.846,0.226-2.388,0.699
	c-1.113,0.956-1.624,2.195-1.72,3.885v8.75c0.032,0.86,0.224,1.624,0.511,2.29c0.509,1.146,1.526,2.293,3.597,2.293
	c0.328,0,0.629-0.023,0.908-0.069l3.077-14.492C37.764,11.32,37.643,10.957,37.494,10.613z M34.885,22.576
	c-0.128,0.479-0.414,0.859-1.019,0.859c-0.287,0-0.511-0.096-0.668-0.256c-0.287-0.35-0.445-0.827-0.414-1.495v-8.75
	c-0.032-0.353,0-0.641,0.095-0.895c0.128-0.479,0.383-0.891,0.987-0.891c0.286,0,0.541,0.096,0.699,0.257
	c0.317,0.381,0.444,0.857,0.414,1.526v8.75C35.012,22.036,34.98,22.323,34.885,22.576z"/>
<path fill="#075FA0" d="M42.051,83.047h3.215l-1.527,7.128c0.67-0.51,1.179-0.893,1.91-1.178c0.287-0.159,0.604-0.226,0.922-0.226
	c0.893,0,1.4,0.511,1.688,1.147c0.224,0.666,0.256,1.527,0.097,2.257L46,103.286c-0.16,0.73-0.541,1.59-1.05,2.228
	c-0.604,0.669-1.273,1.179-2.164,1.179c-0.605,0-1.179-0.353-1.592-0.702c-0.222-0.223-0.444-0.443-0.668-0.7l-0.223,1.146h-3.215
	L42.051,83.047z M41.097,102.618c-0.127,0.604,0.253,1.049,0.731,1.049c0.478,0,0.955-0.445,1.082-1.049l2.068-9.771
	c0.127-0.604-0.159-1.05-0.638-1.05c-0.477,0-1.05,0.542-1.177,1.05L41.097,102.618z"/>
<path fill="#075FA0" d="M12.83,135.347h3.215l-1.527,7.128c0.67-0.51,1.179-0.893,1.91-1.178c0.287-0.159,0.604-0.226,0.922-0.226
	c0.893,0,1.4,0.511,1.688,1.147c0.224,0.666,0.256,1.527,0.097,2.257l-2.354,11.11c-0.16,0.73-0.541,1.59-1.05,2.228
	c-0.604,0.669-1.273,1.179-2.164,1.179c-0.605,0-1.179-0.353-1.592-0.702c-0.222-0.223-0.444-0.443-0.668-0.7l-0.223,1.146H7.868
	L12.83,135.347z M11.877,154.919c-0.127,0.604,0.253,1.049,0.731,1.049c0.478,0,0.955-0.445,1.082-1.049l2.068-9.771
	c0.127-0.604-0.159-1.05-0.638-1.05c-0.477,0-1.05,0.542-1.177,1.05L11.877,154.919z"/>
<path fill="#075FA0" d="M48.538,181.698h3.215l-1.527,7.128c0.67-0.51,1.178-0.893,1.91-1.178c0.287-0.159,0.604-0.226,0.922-0.226
	c0.893,0,1.4,0.511,1.688,1.147c0.223,0.666,0.256,1.527,0.096,2.257l-2.354,11.11c-0.16,0.73-0.541,1.59-1.051,2.228
	c-0.604,0.669-1.273,1.179-2.164,1.179c-0.605,0-1.178-0.353-1.592-0.702c-0.221-0.223-0.443-0.443-0.668-0.7l-0.223,1.146h-3.215
	L48.538,181.698z M47.585,201.269c-0.127,0.604,0.252,1.049,0.73,1.049s0.955-0.445,1.082-1.049l2.068-9.771
	c0.127-0.604-0.158-1.05-0.637-1.05c-0.477,0-1.051,0.542-1.178,1.05L47.585,201.269z"/>
<path fill="#075FA0" d="M47.748,106.436l3.692-17.408h3.214l-3.691,17.407L47.748,106.436L47.748,106.436z M52.712,83.047h3.214
	l-0.698,3.213h-3.214L52.712,83.047z"/>
<path fill="#075FA0" d="M53.509,106.436l4.965-23.39h3.214l-4.964,23.39H53.509z"/>
<path fill="#075FA0" d="M59.268,106.436l4.965-23.39h3.214l-4.964,23.39H59.268z"/>
<rect x="4.079" y="82.791" fill="#075FA0" width="3.438" height="23.39"/>
<rect x="4.079" y="135.291" fill="#075FA0" width="7.182" height="23.39"/>
<path fill="none" d="M61.063,144.097c-0.477,0-1.051,0.542-1.178,1.05l-2.066,9.771c-0.127,0.604,0.252,1.049,0.73,1.049
	s0.955-0.445,1.082-1.049l2.068-9.771C61.827,144.544,61.542,144.097,61.063,144.097z"/>
<path fill="#075FA0" d="M64.979,142.219c-0.287-0.637-0.795-1.147-1.688-1.147c-0.318,0-0.635,0.066-0.922,0.226
	c-0.732,0.285-1.24,0.668-1.91,1.178l1.527-7.128h-3.215l-1.57,7.4v15.074l0.045-0.231c0.225,0.257,0.447,0.478,0.668,0.7
	c0.414,0.35,0.986,0.702,1.592,0.702c0.891,0,1.561-0.51,2.164-1.179c0.51-0.638,0.891-1.497,1.051-2.228l2.354-11.11
	C65.235,143.747,65.202,142.885,64.979,142.219z M61.7,145.147l-2.068,9.771c-0.127,0.604-0.604,1.049-1.082,1.049
	s-0.857-0.445-0.73-1.049l2.066-9.771c0.127-0.508,0.701-1.05,1.178-1.05C61.542,144.097,61.827,144.544,61.7,145.147z"/>
<polygon fill="#075FA0" points="53.809,158.737 57.024,158.737 57.035,158.68 53.821,158.68 "/>
<polygon fill="#075FA0" points="57.202,158.68 57.202,157.822 57.035,158.68 "/>
<polygon fill="#075FA0" points="57.202,135.291 50.02,135.291 50.02,158.68 53.821,158.68 57.202,142.748 "/>
<polygon fill="#075FA0" points="45.034,181.641 37.852,181.641 37.852,205.031 41.653,205.031 45.034,189.098 "/>
<polygon fill="#075FA0" points="53.821,158.68 57.035,158.68 57.202,157.822 57.202,142.748 "/>
<path fill="#075FA0" d="M15.378,88.519c-0.287,0-0.542,0.063-0.828,0.226c-0.572,0.315-1.05,0.795-1.399,1.145
	c-0.189,0.189-0.316,0.319-0.38,0.353v-1.47H9.554v17.407h3.215V92.463c0.094-0.155,0.189-0.285,0.285-0.412
	c0.224-0.222,0.415-0.411,0.764-0.411c0.383,0,0.766,0.093,0.766,0.764v13.777h3.214V91.924c0-0.73-0.19-1.591-0.572-2.259
	C16.842,89.028,16.237,88.519,15.378,88.519z"/>
<polygon fill="#075FA0" points="24.447,98.861 24.32,99.974 24.064,99.974 23.937,98.861 22.887,88.772 19.768,88.772 22.6,106.18 
	25.783,106.18 28.615,88.772 25.497,88.772 "/>
<path fill="#075FA0" d="M37.494,90.78c-0.51-1.114-1.56-2.262-3.627-2.262c-1.051,0-1.846,0.226-2.388,0.699
	c-1.113,0.956-1.624,2.195-1.72,3.885v8.75c0.032,0.86,0.224,1.624,0.511,2.29c0.509,1.146,1.526,2.293,3.597,2.293
	c0.328,0,0.629-0.023,0.908-0.069l3.077-14.492C37.764,91.487,37.643,91.124,37.494,90.78z M34.885,102.743
	c-0.128,0.479-0.414,0.859-1.019,0.859c-0.287,0-0.511-0.096-0.668-0.256c-0.287-0.35-0.445-0.827-0.414-1.495v-8.75
	c-0.032-0.353,0-0.641,0.095-0.895c0.128-0.479,0.383-0.891,0.987-0.891c0.286,0,0.541,0.096,0.699,0.257
	c0.317,0.381,0.444,0.857,0.414,1.526v8.75C35.012,102.203,34.98,102.49,34.885,102.743z"/>
<circle fill="#FFFFFF" cx="41.443" cy="185.024" r="1.904"/>
<g>
	<path d="M32.026,205.077c-0.118,0-0.205-0.028-0.26-0.085c-0.055-0.058-0.082-0.129-0.082-0.216c0-0.081,0.028-0.15,0.083-0.211
		c0.056-0.06,0.142-0.089,0.258-0.089c0.116,0,0.202,0.029,0.259,0.089c0.057,0.061,0.085,0.13,0.085,0.211
		c0,0.087-0.028,0.158-0.085,0.216C32.228,205.049,32.141,205.077,32.026,205.077z M36.354,204.526v0.507h-3.406v-0.507H36.354z"/>
	<path d="M36.354,200.65h-2.203c-0.277,0-0.485,0.063-0.622,0.188c-0.137,0.124-0.205,0.319-0.205,0.583
		c0,0.352,0.097,0.61,0.289,0.772c0.193,0.163,0.511,0.245,0.954,0.245h1.787v0.508h-3.406v-0.413l0.466-0.082v-0.025
		c-0.168-0.104-0.298-0.25-0.39-0.438c-0.092-0.188-0.138-0.397-0.138-0.627c0-0.404,0.099-0.709,0.297-0.913
		c0.198-0.203,0.514-0.306,0.949-0.306h2.222V200.65z"/>
	<path d="M36.354,197.862l-3.406,1.274v-0.546l2.02-0.723c0.473-0.163,0.778-0.259,0.919-0.287v-0.024
		c-0.109-0.023-0.336-0.094-0.681-0.213c-0.345-0.119-1.098-0.388-2.258-0.804v-0.546l3.406,1.274V197.862z"/>
	<path d="M34.649,192.059c0.555,0,0.989,0.139,1.299,0.413c0.313,0.276,0.469,0.657,0.469,1.142c0,0.3-0.072,0.566-0.215,0.8
		s-0.348,0.412-0.615,0.538c-0.268,0.127-0.58,0.19-0.938,0.19c-0.555,0-0.988-0.137-1.298-0.411
		c-0.31-0.273-0.464-0.652-0.464-1.139c0-0.468,0.158-0.842,0.476-1.119C33.679,192.198,34.108,192.059,34.649,192.059z
		 M34.649,194.616c0.435,0,0.767-0.086,0.994-0.258c0.228-0.172,0.343-0.424,0.343-0.756s-0.114-0.585-0.341-0.758
		c-0.227-0.172-0.559-0.259-0.996-0.259c-0.433,0-0.762,0.087-0.987,0.259c-0.225,0.173-0.337,0.428-0.337,0.764
		c0,0.333,0.111,0.584,0.333,0.753C33.879,194.531,34.209,194.616,34.649,194.616z"/>
	<path d="M32.892,189.105c0-0.44,0.153-0.783,0.458-1.027s0.738-0.365,1.298-0.365c0.559,0,0.993,0.122,1.303,0.369
		c0.31,0.245,0.465,0.587,0.465,1.023c0,0.219-0.041,0.418-0.123,0.598c-0.082,0.181-0.207,0.333-0.377,0.455v0.037l0.438,0.107
		v0.364h-4.835v-0.509h1.175c0.263,0,0.5,0.009,0.708,0.025v-0.025C33.062,189.923,32.892,189.571,32.892,189.105z M33.324,189.179
		c0,0.347,0.101,0.598,0.303,0.75s0.542,0.229,1.021,0.229c0.479,0,0.821-0.077,1.026-0.234c0.207-0.158,0.311-0.41,0.311-0.758
		c0-0.312-0.116-0.544-0.348-0.696c-0.23-0.153-0.562-0.231-0.995-0.231c-0.443,0-0.774,0.078-0.991,0.231
		C33.433,188.622,33.324,188.858,33.324,189.179z"/>
	<path d="M32.026,186.367c-0.118,0-0.205-0.028-0.26-0.086c-0.055-0.056-0.082-0.128-0.082-0.214c0-0.081,0.028-0.152,0.083-0.211
		c0.056-0.06,0.142-0.09,0.258-0.09c0.116,0,0.202,0.03,0.259,0.09c0.057,0.059,0.085,0.13,0.085,0.211
		c0,0.086-0.028,0.158-0.085,0.214C32.228,186.339,32.141,186.367,32.026,186.367z M36.354,185.816v0.508h-3.406v-0.508H36.354z"/>
	<path d="M36.354,183.728v0.508h-4.835v-0.508H36.354z"/>
	<path d="M36.354,181.641v0.508h-4.835v-0.508H36.354z"/>
</g>
</svg>
