<svg xmlns="http://www.w3.org/2000/svg" xmlns:xlink="http://www.w3.org/1999/xlink" version="1.1" x="0px" y="0px" width="70.189px" height="29.148px" viewBox="0 0 70.189 29.148" enable-background="new 0 0 70.189 29.148" xml:space="preserve">
	<style>
		.logosvg{fill:	#ffffff;}
	</style>
	<path d="M42.051 2.88h3.214l-1.527 7.128c0.67-0.51 1.179-0.893 1.91-1.178c0.287-0.159 0.604-0.226 0.922-0.226 c0.893 0 1.4 0.5 1.7 1.148c0.223 0.7 0.3 1.5 0.1 2.257l-2.354 11.11c-0.16 0.73-0.541 1.59-1.05 2.2 c-0.605 0.669-1.273 1.179-2.164 1.179c-0.606 0-1.179-0.352-1.592-0.702c-0.222-0.223-0.444-0.443-0.668-0.7l-0.223 1.146h-3.214 L42.051 2.88z M41.097 22.451C40.97 23.1 41.4 23.5 41.8 23.5c0.477 0 0.955-0.446 1.082-1.049l2.068-9.772 c0.127-0.603-0.159-1.049-0.637-1.049c-0.477 0-1.05 0.542-1.177 1.049L41.097 22.451z" class="logosvg"/><path d="M47.748 26.269L51.44 8.861h3.214l-3.691 17.407L47.748 26.269L47.748 26.269z M52.712 2.88h3.214 l-0.699 3.213h-3.214L52.712 2.88z" class="logosvg"/><path d="M53.509 26.269L58.473 2.88h3.214l-4.964 23.389H53.509z" class="logosvg"/><path d="M59.268 26.269L64.233 2.88h3.214l-4.964 23.389H59.268z" class="logosvg"/><rect x="4.1" y="2.6" width="3.4" height="23.4" class="logosvg"/><path d="M15.378 8.352c-0.287 0-0.542 0.063-0.828 0.226c-0.573 0.315-1.05 0.795-1.4 1.1 c-0.189 0.19-0.316 0.32-0.38 0.353V8.605H9.554v17.407h3.215V12.296c0.094-0.156 0.19-0.285 0.285-0.412 c0.224-0.222 0.415-0.412 0.764-0.412c0.383 0 0.8 0.1 0.8 0.764v13.777h3.214V11.757c0-0.731-0.191-1.591-0.573-2.259 C16.842 8.9 16.2 8.4 15.4 8.352z" class="logosvg"/><polygon points="24.4,18.7 24.3,19.8 24.1,19.8 23.9,18.7 22.9,8.6 19.8,8.6 22.6,26 25.8,26 28.6,8.6 25.5,8.6" class="logosvg"/><path d="M37.494 10.613c-0.51-1.114-1.56-2.262-3.627-2.262c-1.051 0-1.846 0.226-2.388 0.7 c-1.113 0.956-1.624 2.195-1.719 3.884v8.75c0.032 0.9 0.2 1.6 0.5 2.29c0.509 1.1 1.5 2.3 3.6 2.3 c0.328 0 0.629-0.023 0.908-0.069l3.077-14.492C37.764 11.3 37.6 11 37.5 10.613z M34.885 22.6 c-0.128 0.478-0.415 0.859-1.019 0.859c-0.287 0-0.511-0.095-0.668-0.256c-0.287-0.349-0.445-0.827-0.414-1.495v-8.75 c-0.032-0.352 0-0.64 0.095-0.894c0.128-0.479 0.382-0.891 0.987-0.891c0.286 0 0.5 0.1 0.7 0.3 c0.318 0.4 0.4 0.9 0.4 1.526v8.75C35.012 22 35 22.3 34.9 22.576z" class="logosvg"/></svg>